<svg width="77" height="74" viewBox="0 0 77 74" fill="none" xmlns="http://www.w3.org/2000/svg">
<path d="M1 37H76M1 37C1 56.8821 17.7893 73 38.5 73M1 37C1 17.1177 17.7893 1 38.5 1M76 37C76 56.8821 59.2105 73 38.5 73M76 37C76 17.1177 59.2105 1 38.5 1M38.5 73C47.8799 63.1418 53.2105 50.3488 53.5 37C53.2105 23.6513 47.8799 10.8581 38.5 1M38.5 73C29.1202 63.1418 23.7897 50.3488 23.5 37C23.7897 23.6513 29.1202 10.8581 38.5 1" stroke="#FFF5E5" stroke-width="2" stroke-linecap="round" stroke-linejoin="round"/>
</svg>
