<svg width="38" height="34" viewBox="0 0 38 34" fill="none" xmlns="http://www.w3.org/2000/svg">
<path d="M35.6667 32V28.6667C35.6667 25.5603 33.542 22.9502 30.6667 22.21M24.8333 2.4846C27.2765 3.47358 29 5.86885 29 8.66667C29 11.4645 27.2765 13.8598 24.8333 14.8487M27.3333 32C27.3333 28.8937 27.3333 27.3407 26.8258 26.1155C26.1492 24.482 24.8513 23.1842 23.2178 22.5075C21.9927 22 20.4397 22 17.3333 22H12.3333C9.22705 22 7.67392 22 6.44878 22.5075C4.81525 23.1842 3.51743 24.482 2.8408 26.1155C2.33333 27.3407 2.33333 28.8937 2.33333 32M21.5 8.66667C21.5 12.3486 18.5152 15.3333 14.8333 15.3333C11.1514 15.3333 8.16667 12.3486 8.16667 8.66667C8.16667 4.98477 11.1514 2 14.8333 2C18.5152 2 21.5 4.98477 21.5 8.66667Z" stroke="#FFF5E5" stroke-width="3" stroke-linecap="round" stroke-linejoin="round"/>
</svg>
