<svg width="34" height="35" viewBox="0 0 34 35" fill="none" xmlns="http://www.w3.org/2000/svg">
<path d="M2 15.6085C2 14.6512 2 14.1725 2.12338 13.7318C2.23267 13.3413 2.41228 12.9741 2.65338 12.6481C2.92557 12.2801 3.30337 11.9863 4.05898 11.3985L15.3628 2.60667C15.9483 2.15125 16.2412 1.92353 16.5645 1.836C16.8497 1.75877 17.1503 1.75877 17.4355 1.836C17.7588 1.92353 18.0517 2.15125 18.6372 2.60667L29.941 11.3986C30.6967 11.9863 31.0745 12.2801 31.3467 12.6481C31.5877 12.9741 31.7673 13.3413 31.8767 13.7318C32 14.1725 32 14.6512 32 15.6085V27.6667C32 29.5335 32 30.4668 31.6367 31.18C31.3172 31.8072 30.8072 32.3172 30.18 32.6367C29.467 33 28.5335 33 26.6667 33H7.33333C5.46648 33 4.53307 33 3.82003 32.6367C3.19282 32.3172 2.68288 31.8072 2.36332 31.18C2 30.4668 2 29.5335 2 27.6667V15.6085Z" stroke="#FFF5E5" stroke-width="3" stroke-linecap="round" stroke-linejoin="round"/>
</svg>
