<svg width="110" height="110" viewBox="0 0 110 110" fill="none" xmlns="http://www.w3.org/2000/svg">
<g filter="url(#filter0_d_79_20)">
<path d="M91.6667 9.16667H18.3334C13.2917 9.16667 9.16669 13.2917 9.16669 18.3333V87.8697C9.16669 92.6536 14.9506 95.0494 18.3334 91.6667V91.6667L24.864 85.136C26.5518 83.4482 28.841 82.5 31.2279 82.5H91.6667C96.7084 82.5 100.833 78.375 100.833 73.3333V18.3333C100.833 13.2917 96.7084 9.16667 91.6667 9.16667ZM87.0834 73.3333H28.3137C27.7725 73.3333 27.2324 73.2824 26.7007 73.1811V73.1811C22.7378 72.4262 19.8283 69.0241 19.6976 64.9921L18.3334 22.9167C18.3334 20.3958 20.3959 18.3333 22.9167 18.3333H87.0834C89.6042 18.3333 91.6667 20.3958 91.6667 22.9167V68.75C91.6667 71.2708 89.6042 73.3333 87.0834 73.3333Z" fill="white"/>
</g>
<path d="M46.9825 43.9163C42.9017 43.9163 39.6321 40.6221 39.6321 36.5413C39.6321 32.4604 42.9017 29.1663 46.9825 29.1663C51.0633 29.1663 54.3575 32.4604 54.3575 36.5413C54.3575 40.6221 51.0633 43.9163 46.9825 43.9163ZM66.6492 43.9163C62.5683 43.9163 59.2987 40.6221 59.2987 36.5413C59.2987 32.4604 62.5683 29.1663 66.6492 29.1663C70.73 29.1663 74.0241 32.4604 74.0241 36.5413C74.0241 40.6221 70.73 43.9163 66.6492 43.9163ZM66.6492 48.8329C72.3771 48.8329 83.8575 51.7092 83.8575 57.4371V63.5829H49.4408V57.4371C49.4408 51.7092 60.9212 48.8329 66.6492 48.8329ZM46.9825 48.8329C47.6954 48.8329 48.5067 48.8821 49.3671 48.9558C46.5154 51.0208 44.5242 53.7988 44.5242 57.4371V63.5829H29.7742V57.4371C29.7742 51.7092 41.2546 48.8329 46.9825 48.8329Z" fill="#CF7E91"/>
<defs>
<filter id="filter0_d_79_20" x="9.16669" y="9.16667" width="97.6667" height="92.0835" filterUnits="userSpaceOnUse" color-interpolation-filters="sRGB">
<feFlood flood-opacity="0" result="BackgroundImageFix"/>
<feColorMatrix in="SourceAlpha" type="matrix" values="0 0 0 0 0 0 0 0 0 0 0 0 0 0 0 0 0 0 127 0" result="hardAlpha"/>
<feOffset dx="6" dy="8"/>
<feComposite in2="hardAlpha" operator="out"/>
<feColorMatrix type="matrix" values="0 0 0 0 0 0 0 0 0 0 0 0 0 0 0 0 0 0 0.25 0"/>
<feBlend mode="normal" in2="BackgroundImageFix" result="effect1_dropShadow_79_20"/>
<feBlend mode="normal" in="SourceGraphic" in2="effect1_dropShadow_79_20" result="shape"/>
</filter>
</defs>
</svg>
