<svg width="34" height="38" viewBox="0 0 34 38" fill="none" xmlns="http://www.w3.org/2000/svg">
<path d="M32 36C32 33.3639 32 32.046 31.6771 30.9735C30.95 28.5587 29.0741 26.6689 26.6771 25.9364C25.6124 25.6111 24.3043 25.6111 21.6875 25.6111H12.3125C9.69582 25.6111 8.38747 25.6111 7.32286 25.9364C4.92584 26.6689 3.05007 28.5587 2.32295 30.9735C2 32.046 2 33.3639 2 36M25.4375 10.5C25.4375 15.1944 21.6599 19 17 19C12.3401 19 8.5625 15.1944 8.5625 10.5C8.5625 5.80558 12.3401 2 17 2C21.6599 2 25.4375 5.80558 25.4375 10.5Z" stroke="#FFF5E5" stroke-width="3" stroke-linecap="round" stroke-linejoin="round"/>
</svg>
